<svg xmlns="http://www.w3.org/2000/svg" viewBox="0 0 800 500" role="img" aria-label="Business digital illustration">
  <defs>
    <linearGradient id="bg" x1="0%" y1="0%" x2="100%" y2="100%">
      <stop offset="0%" stop-color="#1e3a8a" />
      <stop offset="100%" stop-color="#172554" />
    </linearGradient>
    <linearGradient id="accent" x1="0%" y1="0%" x2="100%" y2="100%">
      <stop offset="0%" stop-color="#f97316" />
      <stop offset="100%" stop-color="#ea580c" />
    </linearGradient>
  </defs>
  <rect width="800" height="500" fill="url(#bg)" rx="24" />
  <circle cx="650" cy="120" r="80" fill="url(#accent)" opacity="0.2" />
  <circle cx="150" cy="400" r="60" fill="url(#accent)" opacity="0.15" />
  <rect x="220" y="140" width="360" height="220" rx="16" fill="white" opacity="0.95" />
  <rect x="250" y="170" width="200" height="16" rx="8" fill="#1e3a8a" opacity="0.8" />
  <rect x="250" y="200" width="300" height="12" rx="6" fill="#64748b" />
  <rect x="250" y="220" width="260" height="12" rx="6" fill="#64748b" />
  <rect x="250" y="250" width="140" height="40" rx="8" fill="url(#accent)" />
  <rect x="250" y="310" width="300" height="80" rx="8" fill="#f1f5f9" />
  <rect x="270" y="330" width="60" height="60" rx="8" fill="#cbd5e1" />
  <rect x="350" y="340" width="160" height="10" rx="5" fill="#64748b" />
  <rect x="350" y="360" width="120" height="10" rx="5" fill="#94a3b8" />
  <circle cx="620" cy="420" r="40" fill="url(#accent)" />
  <path d="M605 410 L615 420 L635 400" stroke="white" stroke-width="6" fill="none" stroke-linecap="round" stroke-linejoin="round" />
</svg>
